<mxfile host="app.diagrams.net" modified="2023-04-13T16:56:25.039Z" agent="Mozilla/5.0 (Windows NT 10.0; Win64; x64) AppleWebKit/537.36 (KHTML, like Gecko) Chrome/111.0.0.0 Safari/537.36" version="21.1.5" etag="VTmTCOpA-hfHJC2WC5Yw" type="github">
  <diagram name="Page-1" id="6fndxZN2ZIJIgHDEve_i">
    <mxGraphModel>
      <root>
        <mxCell id="0" />
        <mxCell id="1" parent="0" />
      </root>
    </mxGraphModel>
  </diagram>
</mxfile>
